{
	"asset":{
		"generator":"Khronos glTF Blender I/O v5.2.40",
		"version":"2.0"
	},
	"scene":0,
	"scenes":[
		{
			"name":"Scene",
			"nodes":[
				0
			]
		}
	],
	"nodes":[
		{
			"mesh":0,
			"name":"panel"
		}
	],
	"materials":[
		{
			"doubleSided":true,
			"name":"neon_glass",
			"pbrMetallicRoughness":{
				"baseColorFactor":[
					0.062745101749897,
					0.062745101749897,
					0.0941176488995552,
					1
				],
				"metallicFactor":0,
				"roughnessFactor":0.5
			}
		},
		{
			"doubleSided":true,
			"name":"grey",
			"pbrMetallicRoughness":{
				"baseColorFactor":[
					0.22745098173618317,
					0.22745098173618317,
					0.29019609093666077,
					1
				],
				"metallicFactor":0,
				"roughnessFactor":0.5
			}
		}
	],
	"meshes":[
		{
			"name":"panel",
			"primitives":[
				{
					"attributes":{
						"POSITION":0,
						"NORMAL":1,
						"TEXCOORD_0":2
					},
					"indices":3,
					"material":0
				},
				{
					"attributes":{
						"POSITION":4,
						"NORMAL":5,
						"TEXCOORD_0":6
					},
					"indices":7,
					"material":1
				}
			]
		}
	],
	"accessors":[
		{
			"bufferView":0,
			"componentType":5126,
			"count":896,
			"max":[
				0.5699999928474426,
				0.544201135635376,
				0.011407734826207161
			],
			"min":[
				-0.5699999928474426,
				0,
				0.005357359070330858
			],
			"type":"VEC3"
		},
		{
			"bufferView":1,
			"componentType":5126,
			"count":896,
			"type":"VEC3"
		},
		{
			"bufferView":2,
			"componentType":5126,
			"count":896,
			"type":"VEC2"
		},
		{
			"bufferView":3,
			"componentType":5123,
			"count":5364,
			"type":"SCALAR"
		},
		{
			"bufferView":4,
			"componentType":5126,
			"count":4008,
			"max":[
				0.5595239400863647,
				0.5332675576210022,
				0.018370619043707848
			],
			"min":[
				-0.5579380989074707,
				0.011619404889643192,
				-0.018370620906352997
			],
			"type":"VEC3"
		},
		{
			"bufferView":5,
			"componentType":5126,
			"count":4008,
			"type":"VEC3"
		},
		{
			"bufferView":6,
			"componentType":5126,
			"count":4008,
			"type":"VEC2"
		},
		{
			"bufferView":7,
			"componentType":5123,
			"count":19152,
			"type":"SCALAR"
		}
	],
	"bufferViews":[
		{
			"buffer":0,
			"byteLength":10752,
			"byteOffset":0,
			"target":34962
		},
		{
			"buffer":0,
			"byteLength":10752,
			"byteOffset":10752,
			"target":34962
		},
		{
			"buffer":0,
			"byteLength":7168,
			"byteOffset":21504,
			"target":34962
		},
		{
			"buffer":0,
			"byteLength":10728,
			"byteOffset":28672,
			"target":34963
		},
		{
			"buffer":0,
			"byteLength":48096,
			"byteOffset":39400,
			"target":34962
		},
		{
			"buffer":0,
			"byteLength":48096,
			"byteOffset":87496,
			"target":34962
		},
		{
			"buffer":0,
			"byteLength":32064,
			"byteOffset":135592,
			"target":34962
		},
		{
			"buffer":0,
			"byteLength":38304,
			"byteOffset":167656,
			"target":34963
		}
	],
	"buffers":[
		{
			"byteLength":205960,
			"uri":"panel.bin"
		}
	]
}
