{
	"asset":{
		"generator":"Khronos glTF Blender I/O v5.2.40",
		"version":"2.0"
	},
	"scene":0,
	"scenes":[
		{
			"name":"Scene",
			"nodes":[
				0
			]
		}
	],
	"nodes":[
		{
			"mesh":0,
			"name":"book"
		}
	],
	"materials":[
		{
			"doubleSided":true,
			"name":"neon_pink",
			"pbrMetallicRoughness":{
				"baseColorFactor":[
					1,
					0.1764705926179886,
					0.5843137502670288,
					1
				],
				"metallicFactor":0,
				"roughnessFactor":0.5
			}
		},
		{
			"doubleSided":true,
			"name":"paper",
			"pbrMetallicRoughness":{
				"baseColorFactor":[
					0.9372549057006836,
					0.9058823585510254,
					0.8392156958580017,
					1
				],
				"metallicFactor":0,
				"roughnessFactor":0.5
			}
		},
		{
			"doubleSided":true,
			"name":"book_2",
			"pbrMetallicRoughness":{
				"baseColorFactor":[
					0.16470588743686676,
					0.4901960790157318,
					0.8823529481887817,
					1
				],
				"metallicFactor":0,
				"roughnessFactor":0.5
			}
		}
	],
	"meshes":[
		{
			"name":"book",
			"primitives":[
				{
					"attributes":{
						"POSITION":0,
						"NORMAL":1,
						"TEXCOORD_0":2,
						"TEXCOORD_1":3
					},
					"indices":4,
					"material":0
				},
				{
					"attributes":{
						"POSITION":5,
						"NORMAL":6,
						"TEXCOORD_0":7,
						"TEXCOORD_1":8
					},
					"indices":9,
					"material":1
				},
				{
					"attributes":{
						"POSITION":10,
						"NORMAL":11,
						"TEXCOORD_0":12,
						"TEXCOORD_1":13
					},
					"indices":14,
					"material":1
				},
				{
					"attributes":{
						"POSITION":15,
						"NORMAL":16,
						"TEXCOORD_0":17,
						"TEXCOORD_1":18
					},
					"indices":19,
					"material":1
				},
				{
					"attributes":{
						"POSITION":20,
						"NORMAL":21,
						"TEXCOORD_0":22,
						"TEXCOORD_1":23
					},
					"indices":24,
					"material":1
				},
				{
					"attributes":{
						"POSITION":25,
						"NORMAL":26,
						"TEXCOORD_0":27,
						"TEXCOORD_1":28
					},
					"indices":29,
					"material":2
				},
				{
					"attributes":{
						"POSITION":30,
						"NORMAL":31,
						"TEXCOORD_0":32,
						"TEXCOORD_1":33
					},
					"indices":34,
					"material":2
				},
				{
					"attributes":{
						"POSITION":35,
						"NORMAL":36,
						"TEXCOORD_0":37,
						"TEXCOORD_1":38
					},
					"indices":39,
					"material":2
				},
				{
					"attributes":{
						"POSITION":40,
						"NORMAL":41,
						"TEXCOORD_0":42,
						"TEXCOORD_1":43
					},
					"indices":44,
					"material":1
				}
			]
		}
	],
	"accessors":[
		{
			"bufferView":0,
			"componentType":5126,
			"count":335,
			"max":[
				0.03170153498649597,
				0.029520021751523018,
				0.16268637776374817
			],
			"min":[
				0.009580564685165882,
				0.01985081098973751,
				0.02921798825263977
			],
			"type":"VEC3"
		},
		{
			"bufferView":1,
			"componentType":5126,
			"count":335,
			"type":"VEC3"
		},
		{
			"bufferView":2,
			"componentType":5126,
			"count":335,
			"type":"VEC2"
		},
		{
			"bufferView":3,
			"componentType":5126,
			"count":335,
			"type":"VEC2"
		},
		{
			"bufferView":4,
			"componentType":5123,
			"count":1506,
			"type":"SCALAR"
		},
		{
			"bufferView":5,
			"componentType":5126,
			"count":9866,
			"max":[
				0.16312171518802643,
				0.03687338903546333,
				0.14972564578056335
			],
			"min":[
				-0.1628076732158661,
				0.004664175678044558,
				-0.15927527844905853
			],
			"type":"VEC3"
		},
		{
			"bufferView":6,
			"componentType":5126,
			"count":9866,
			"type":"VEC3"
		},
		{
			"bufferView":7,
			"componentType":5126,
			"count":9866,
			"type":"VEC2"
		},
		{
			"bufferView":8,
			"componentType":5126,
			"count":9866,
			"type":"VEC2"
		},
		{
			"bufferView":9,
			"componentType":5123,
			"count":36507,
			"type":"SCALAR"
		},
		{
			"bufferView":10,
			"componentType":5126,
			"count":942,
			"max":[
				0.16746537387371063,
				0.033341094851493835,
				0.14918452501296997
			],
			"min":[
				-0.16689011454582214,
				0.0034609949216246605,
				-0.15916305780410767
			],
			"type":"VEC3"
		},
		{
			"bufferView":11,
			"componentType":5126,
			"count":942,
			"type":"VEC3"
		},
		{
			"bufferView":12,
			"componentType":5126,
			"count":942,
			"type":"VEC2"
		},
		{
			"bufferView":13,
			"componentType":5126,
			"count":942,
			"type":"VEC2"
		},
		{
			"bufferView":14,
			"componentType":5123,
			"count":2787,
			"type":"SCALAR"
		},
		{
			"bufferView":15,
			"componentType":5126,
			"count":436,
			"max":[
				0.15761767327785492,
				0.04631197080016136,
				0.14905370771884918
			],
			"min":[
				-0.15341021120548248,
				0.008446186780929565,
				-0.15897217392921448
			],
			"type":"VEC3"
		},
		{
			"bufferView":16,
			"componentType":5126,
			"count":436,
			"type":"VEC3"
		},
		{
			"bufferView":17,
			"componentType":5126,
			"count":436,
			"type":"VEC2"
		},
		{
			"bufferView":18,
			"componentType":5126,
			"count":436,
			"type":"VEC2"
		},
		{
			"bufferView":19,
			"componentType":5123,
			"count":1377,
			"type":"SCALAR"
		},
		{
			"bufferView":20,
			"componentType":5126,
			"count":61,
			"max":[
				0.1487448662519455,
				0.03632581979036331,
				0.1487473100423813
			],
			"min":[
				0.0001557600626256317,
				0.00857546366751194,
				-0.15891586244106293
			],
			"type":"VEC3"
		},
		{
			"bufferView":21,
			"componentType":5126,
			"count":61,
			"type":"VEC3"
		},
		{
			"bufferView":22,
			"componentType":5126,
			"count":61,
			"type":"VEC2"
		},
		{
			"bufferView":23,
			"componentType":5126,
			"count":61,
			"type":"VEC2"
		},
		{
			"bufferView":24,
			"componentType":5123,
			"count":171,
			"type":"SCALAR"
		},
		{
			"bufferView":25,
			"componentType":5126,
			"count":5484,
			"max":[
				0.16965997219085693,
				0.012425540015101433,
				0.14660198986530304
			],
			"min":[
				-0.1690843403339386,
				0.0003102974151261151,
				-0.16061155498027802
			],
			"type":"VEC3"
		},
		{
			"bufferView":26,
			"componentType":5126,
			"count":5484,
			"type":"VEC3"
		},
		{
			"bufferView":27,
			"componentType":5126,
			"count":5484,
			"type":"VEC2"
		},
		{
			"bufferView":28,
			"componentType":5126,
			"count":5484,
			"type":"VEC2"
		},
		{
			"bufferView":29,
			"componentType":5123,
			"count":16488,
			"type":"SCALAR"
		},
		{
			"bufferView":30,
			"componentType":5126,
			"count":157,
			"max":[
				0.17000000178813934,
				0.012499483302235603,
				0.14769114553928375
			],
			"min":[
				-0.16999998688697815,
				0.003561613615602255,
				-0.16182465851306915
			],
			"type":"VEC3"
		},
		{
			"bufferView":31,
			"componentType":5126,
			"count":157,
			"type":"VEC3"
		},
		{
			"bufferView":32,
			"componentType":5126,
			"count":157,
			"type":"VEC2"
		},
		{
			"bufferView":33,
			"componentType":5126,
			"count":157,
			"type":"VEC2"
		},
		{
			"bufferView":34,
			"componentType":5123,
			"count":474,
			"type":"SCALAR"
		},
		{
			"bufferView":35,
			"componentType":5126,
			"count":191,
			"max":[
				0.168877512216568,
				0.007109868340194225,
				0.14769117534160614
			],
			"min":[
				-0.16812589764595032,
				2.206783422664671e-09,
				-0.16266638040542603
			],
			"type":"VEC3"
		},
		{
			"bufferView":36,
			"componentType":5126,
			"count":191,
			"type":"VEC3"
		},
		{
			"bufferView":37,
			"componentType":5126,
			"count":191,
			"type":"VEC2"
		},
		{
			"bufferView":38,
			"componentType":5126,
			"count":191,
			"type":"VEC2"
		},
		{
			"bufferView":39,
			"componentType":5123,
			"count":708,
			"type":"SCALAR"
		},
		{
			"bufferView":40,
			"componentType":5126,
			"count":320,
			"max":[
				0.15257106721401215,
				0.0376676581799984,
				0.14905408024787903
			],
			"min":[
				0.0001586695871083066,
				0.008497473783791065,
				-0.15897035598754883
			],
			"type":"VEC3"
		},
		{
			"bufferView":41,
			"componentType":5126,
			"count":320,
			"type":"VEC3"
		},
		{
			"bufferView":42,
			"componentType":5126,
			"count":320,
			"type":"VEC2"
		},
		{
			"bufferView":43,
			"componentType":5126,
			"count":320,
			"type":"VEC2"
		},
		{
			"bufferView":44,
			"componentType":5123,
			"count":996,
			"type":"SCALAR"
		}
	],
	"bufferViews":[
		{
			"buffer":0,
			"byteLength":4020,
			"byteOffset":0,
			"target":34962
		},
		{
			"buffer":0,
			"byteLength":4020,
			"byteOffset":4020,
			"target":34962
		},
		{
			"buffer":0,
			"byteLength":2680,
			"byteOffset":8040,
			"target":34962
		},
		{
			"buffer":0,
			"byteLength":2680,
			"byteOffset":10720,
			"target":34962
		},
		{
			"buffer":0,
			"byteLength":3012,
			"byteOffset":13400,
			"target":34963
		},
		{
			"buffer":0,
			"byteLength":118392,
			"byteOffset":16412,
			"target":34962
		},
		{
			"buffer":0,
			"byteLength":118392,
			"byteOffset":134804,
			"target":34962
		},
		{
			"buffer":0,
			"byteLength":78928,
			"byteOffset":253196,
			"target":34962
		},
		{
			"buffer":0,
			"byteLength":78928,
			"byteOffset":332124,
			"target":34962
		},
		{
			"buffer":0,
			"byteLength":73014,
			"byteOffset":411052,
			"target":34963
		},
		{
			"buffer":0,
			"byteLength":11304,
			"byteOffset":484068,
			"target":34962
		},
		{
			"buffer":0,
			"byteLength":11304,
			"byteOffset":495372,
			"target":34962
		},
		{
			"buffer":0,
			"byteLength":7536,
			"byteOffset":506676,
			"target":34962
		},
		{
			"buffer":0,
			"byteLength":7536,
			"byteOffset":514212,
			"target":34962
		},
		{
			"buffer":0,
			"byteLength":5574,
			"byteOffset":521748,
			"target":34963
		},
		{
			"buffer":0,
			"byteLength":5232,
			"byteOffset":527324,
			"target":34962
		},
		{
			"buffer":0,
			"byteLength":5232,
			"byteOffset":532556,
			"target":34962
		},
		{
			"buffer":0,
			"byteLength":3488,
			"byteOffset":537788,
			"target":34962
		},
		{
			"buffer":0,
			"byteLength":3488,
			"byteOffset":541276,
			"target":34962
		},
		{
			"buffer":0,
			"byteLength":2754,
			"byteOffset":544764,
			"target":34963
		},
		{
			"buffer":0,
			"byteLength":732,
			"byteOffset":547520,
			"target":34962
		},
		{
			"buffer":0,
			"byteLength":732,
			"byteOffset":548252,
			"target":34962
		},
		{
			"buffer":0,
			"byteLength":488,
			"byteOffset":548984,
			"target":34962
		},
		{
			"buffer":0,
			"byteLength":488,
			"byteOffset":549472,
			"target":34962
		},
		{
			"buffer":0,
			"byteLength":342,
			"byteOffset":549960,
			"target":34963
		},
		{
			"buffer":0,
			"byteLength":65808,
			"byteOffset":550304,
			"target":34962
		},
		{
			"buffer":0,
			"byteLength":65808,
			"byteOffset":616112,
			"target":34962
		},
		{
			"buffer":0,
			"byteLength":43872,
			"byteOffset":681920,
			"target":34962
		},
		{
			"buffer":0,
			"byteLength":43872,
			"byteOffset":725792,
			"target":34962
		},
		{
			"buffer":0,
			"byteLength":32976,
			"byteOffset":769664,
			"target":34963
		},
		{
			"buffer":0,
			"byteLength":1884,
			"byteOffset":802640,
			"target":34962
		},
		{
			"buffer":0,
			"byteLength":1884,
			"byteOffset":804524,
			"target":34962
		},
		{
			"buffer":0,
			"byteLength":1256,
			"byteOffset":806408,
			"target":34962
		},
		{
			"buffer":0,
			"byteLength":1256,
			"byteOffset":807664,
			"target":34962
		},
		{
			"buffer":0,
			"byteLength":948,
			"byteOffset":808920,
			"target":34963
		},
		{
			"buffer":0,
			"byteLength":2292,
			"byteOffset":809868,
			"target":34962
		},
		{
			"buffer":0,
			"byteLength":2292,
			"byteOffset":812160,
			"target":34962
		},
		{
			"buffer":0,
			"byteLength":1528,
			"byteOffset":814452,
			"target":34962
		},
		{
			"buffer":0,
			"byteLength":1528,
			"byteOffset":815980,
			"target":34962
		},
		{
			"buffer":0,
			"byteLength":1416,
			"byteOffset":817508,
			"target":34963
		},
		{
			"buffer":0,
			"byteLength":3840,
			"byteOffset":818924,
			"target":34962
		},
		{
			"buffer":0,
			"byteLength":3840,
			"byteOffset":822764,
			"target":34962
		},
		{
			"buffer":0,
			"byteLength":2560,
			"byteOffset":826604,
			"target":34962
		},
		{
			"buffer":0,
			"byteLength":2560,
			"byteOffset":829164,
			"target":34962
		},
		{
			"buffer":0,
			"byteLength":1992,
			"byteOffset":831724,
			"target":34963
		}
	],
	"buffers":[
		{
			"byteLength":833716,
			"uri":"book.bin"
		}
	]
}
