{
	"asset":{
		"generator":"Khronos glTF Blender I/O v5.2.40",
		"version":"2.0"
	},
	"scene":0,
	"scenes":[
		{
			"name":"Scene",
			"nodes":[
				0
			]
		}
	],
	"nodes":[
		{
			"mesh":0,
			"name":"keyboard"
		}
	],
	"materials":[
		{
			"doubleSided":true,
			"name":"keycap",
			"pbrMetallicRoughness":{
				"baseColorFactor":[
					0.8941176533699036,
					0.8470588326454163,
					0.7450980544090271,
					1
				],
				"metallicFactor":0,
				"roughnessFactor":0.5
			}
		}
	],
	"meshes":[
		{
			"name":"keyboard",
			"primitives":[
				{
					"attributes":{
						"POSITION":0,
						"NORMAL":1,
						"TEXCOORD_0":2
					},
					"indices":3,
					"material":0
				}
			]
		}
	],
	"accessors":[
		{
			"bufferView":0,
			"componentType":5126,
			"count":1062,
			"max":[
				0.2116551697254181,
				0.02523554489016533,
				0.09020724892616272
			],
			"min":[
				-0.2116551548242569,
				0,
				-0.09020727872848511
			],
			"type":"VEC3"
		},
		{
			"bufferView":1,
			"componentType":5126,
			"count":1062,
			"type":"VEC3"
		},
		{
			"bufferView":2,
			"componentType":5126,
			"count":1062,
			"type":"VEC2"
		},
		{
			"bufferView":3,
			"componentType":5123,
			"count":3756,
			"type":"SCALAR"
		}
	],
	"bufferViews":[
		{
			"buffer":0,
			"byteLength":12744,
			"byteOffset":0,
			"target":34962
		},
		{
			"buffer":0,
			"byteLength":12744,
			"byteOffset":12744,
			"target":34962
		},
		{
			"buffer":0,
			"byteLength":8496,
			"byteOffset":25488,
			"target":34962
		},
		{
			"buffer":0,
			"byteLength":7512,
			"byteOffset":33984,
			"target":34963
		}
	],
	"buffers":[
		{
			"byteLength":41496,
			"uri":"keyboard.bin"
		}
	]
}
