{
	"asset":{
		"generator":"Khronos glTF Blender I/O v5.2.40",
		"version":"2.0"
	},
	"scene":0,
	"scenes":[
		{
			"name":"Scene",
			"nodes":[
				0
			]
		}
	],
	"nodes":[
		{
			"mesh":0,
			"name":"monitor"
		}
	],
	"materials":[
		{
			"doubleSided":true,
			"name":"beige",
			"pbrMetallicRoughness":{
				"baseColorFactor":[
					0.8509804010391235,
					0.7960784435272217,
					0.6901960968971252,
					1
				],
				"metallicFactor":0,
				"roughnessFactor":0.5
			}
		}
	],
	"meshes":[
		{
			"name":"monitor",
			"primitives":[
				{
					"attributes":{
						"POSITION":0,
						"NORMAL":1,
						"TEXCOORD_0":2
					},
					"indices":3,
					"material":0
				}
			]
		}
	],
	"accessors":[
		{
			"bufferView":0,
			"componentType":5126,
			"count":1729,
			"max":[
				0.20999999344348907,
				0.38544756174087524,
				0.18615210056304932
			],
			"min":[
				-0.20999999344348907,
				0,
				-0.18615210056304932
			],
			"type":"VEC3"
		},
		{
			"bufferView":1,
			"componentType":5126,
			"count":1729,
			"type":"VEC3"
		},
		{
			"bufferView":2,
			"componentType":5126,
			"count":1729,
			"type":"VEC2"
		},
		{
			"bufferView":3,
			"componentType":5123,
			"count":7041,
			"type":"SCALAR"
		}
	],
	"bufferViews":[
		{
			"buffer":0,
			"byteLength":20748,
			"byteOffset":0,
			"target":34962
		},
		{
			"buffer":0,
			"byteLength":20748,
			"byteOffset":20748,
			"target":34962
		},
		{
			"buffer":0,
			"byteLength":13832,
			"byteOffset":41496,
			"target":34962
		},
		{
			"buffer":0,
			"byteLength":14082,
			"byteOffset":55328,
			"target":34963
		}
	],
	"buffers":[
		{
			"byteLength":69412,
			"uri":"monitor.bin"
		}
	]
}
