{
	"asset":{
		"generator":"Khronos glTF Blender I/O v5.2.40",
		"version":"2.0"
	},
	"scene":0,
	"scenes":[
		{
			"name":"Scene",
			"nodes":[
				0
			]
		}
	],
	"nodes":[
		{
			"mesh":0,
			"name":"screen"
		}
	],
	"materials":[
		{
			"doubleSided":true,
			"name":"screen",
			"pbrMetallicRoughness":{
				"baseColorFactor":[
					0.062745101749897,
					0.062745101749897,
					0.0941176488995552,
					1
				],
				"metallicFactor":0,
				"roughnessFactor":0.5
			}
		}
	],
	"meshes":[
		{
			"name":"screen",
			"primitives":[
				{
					"attributes":{
						"POSITION":0,
						"NORMAL":1,
						"TEXCOORD_0":2
					},
					"indices":3,
					"material":0
				}
			]
		}
	],
	"accessors":[
		{
			"bufferView":0,
			"componentType":5126,
			"count":77,
			"max":[
				0.17137651145458221,
				0.34371092915534973,
				0.15802019834518433
			],
			"min":[
				-0.17137651145458221,
				0.07821613550186157,
				0.13246773183345795
			],
			"type":"VEC3"
		},
		{
			"bufferView":1,
			"componentType":5126,
			"count":77,
			"type":"VEC3"
		},
		{
			"bufferView":2,
			"componentType":5126,
			"count":77,
			"type":"VEC2"
		},
		{
			"bufferView":3,
			"componentType":5123,
			"count":360,
			"type":"SCALAR"
		}
	],
	"bufferViews":[
		{
			"buffer":0,
			"byteLength":924,
			"byteOffset":0,
			"target":34962
		},
		{
			"buffer":0,
			"byteLength":924,
			"byteOffset":924,
			"target":34962
		},
		{
			"buffer":0,
			"byteLength":616,
			"byteOffset":1848,
			"target":34962
		},
		{
			"buffer":0,
			"byteLength":720,
			"byteOffset":2464,
			"target":34963
		}
	],
	"buffers":[
		{
			"byteLength":3184,
			"uri":"screen.bin"
		}
	]
}
