{
	"asset":{
		"generator":"Khronos glTF Blender I/O v5.2.40",
		"version":"2.0"
	},
	"scene":0,
	"scenes":[
		{
			"name":"Scene",
			"nodes":[
				0
			]
		}
	],
	"nodes":[
		{
			"mesh":0,
			"name":"tower"
		}
	],
	"materials":[
		{
			"doubleSided":true,
			"name":"beige.001",
			"pbrMetallicRoughness":{
				"baseColorFactor":[
					0.8509804010391235,
					0.7960784435272217,
					0.6901960968971252,
					1
				],
				"metallicFactor":0,
				"roughnessFactor":0.5
			}
		},
		{
			"doubleSided":true,
			"name":"neon_green",
			"pbrMetallicRoughness":{
				"baseColorFactor":[
					0.2235294133424759,
					1,
					0.5333333611488342,
					1
				],
				"metallicFactor":0,
				"roughnessFactor":0.5
			}
		},
		{
			"doubleSided":true,
			"name":"beige_dark",
			"pbrMetallicRoughness":{
				"baseColorFactor":[
					0.7254902124404907,
					0.6627451181411743,
					0.5490196347236633,
					1
				],
				"metallicFactor":0,
				"roughnessFactor":0.5
			}
		}
	],
	"meshes":[
		{
			"name":"tower",
			"primitives":[
				{
					"attributes":{
						"POSITION":0,
						"NORMAL":1,
						"TEXCOORD_0":2
					},
					"indices":3,
					"material":0
				},
				{
					"attributes":{
						"POSITION":4,
						"NORMAL":5,
						"TEXCOORD_0":6
					},
					"indices":7,
					"material":1
				},
				{
					"attributes":{
						"POSITION":8,
						"NORMAL":9,
						"TEXCOORD_0":10
					},
					"indices":11,
					"material":2
				},
				{
					"attributes":{
						"POSITION":12,
						"NORMAL":13,
						"TEXCOORD_0":14
					},
					"indices":15,
					"material":2
				}
			]
		}
	],
	"accessors":[
		{
			"bufferView":0,
			"componentType":5126,
			"count":12576,
			"max":[
				0.09169313311576843,
				0.3777482211589813,
				0.17809642851352692
			],
			"min":[
				-0.09169396758079529,
				8.730084744001942e-08,
				-0.17809464037418365
			],
			"type":"VEC3"
		},
		{
			"bufferView":1,
			"componentType":5126,
			"count":12576,
			"type":"VEC3"
		},
		{
			"bufferView":2,
			"componentType":5126,
			"count":12576,
			"type":"VEC2"
		},
		{
			"bufferView":3,
			"componentType":5123,
			"count":62727,
			"type":"SCALAR"
		},
		{
			"bufferView":4,
			"componentType":5126,
			"count":24,
			"max":[
				-0.0579148530960083,
				0.2243090271949768,
				0.16816727817058563
			],
			"min":[
				-0.06008557230234146,
				0.22316992282867432,
				0.16634511947631836
			],
			"type":"VEC3"
		},
		{
			"bufferView":5,
			"componentType":5126,
			"count":24,
			"type":"VEC3"
		},
		{
			"bufferView":6,
			"componentType":5126,
			"count":24,
			"type":"VEC2"
		},
		{
			"bufferView":7,
			"componentType":5123,
			"count":36,
			"type":"SCALAR"
		},
		{
			"bufferView":8,
			"componentType":5126,
			"count":787,
			"max":[
				0.060410045087337494,
				0.23370009660720825,
				0.1728024184703827
			],
			"min":[
				0.050994835793972015,
				0.18283683061599731,
				0.16811320185661316
			],
			"type":"VEC3"
		},
		{
			"bufferView":9,
			"componentType":5126,
			"count":787,
			"type":"VEC3"
		},
		{
			"bufferView":10,
			"componentType":5126,
			"count":787,
			"type":"VEC2"
		},
		{
			"bufferView":11,
			"componentType":5123,
			"count":4446,
			"type":"SCALAR"
		},
		{
			"bufferView":12,
			"componentType":5126,
			"count":357,
			"max":[
				0.057361945509910583,
				0.20987817645072937,
				0.17232239246368408
			],
			"min":[
				0.05294760316610336,
				0.20530526340007782,
				0.168219655752182
			],
			"type":"VEC3"
		},
		{
			"bufferView":13,
			"componentType":5126,
			"count":357,
			"type":"VEC3"
		},
		{
			"bufferView":14,
			"componentType":5126,
			"count":357,
			"type":"VEC2"
		},
		{
			"bufferView":15,
			"componentType":5123,
			"count":2040,
			"type":"SCALAR"
		}
	],
	"bufferViews":[
		{
			"buffer":0,
			"byteLength":150912,
			"byteOffset":0,
			"target":34962
		},
		{
			"buffer":0,
			"byteLength":150912,
			"byteOffset":150912,
			"target":34962
		},
		{
			"buffer":0,
			"byteLength":100608,
			"byteOffset":301824,
			"target":34962
		},
		{
			"buffer":0,
			"byteLength":125454,
			"byteOffset":402432,
			"target":34963
		},
		{
			"buffer":0,
			"byteLength":288,
			"byteOffset":527888,
			"target":34962
		},
		{
			"buffer":0,
			"byteLength":288,
			"byteOffset":528176,
			"target":34962
		},
		{
			"buffer":0,
			"byteLength":192,
			"byteOffset":528464,
			"target":34962
		},
		{
			"buffer":0,
			"byteLength":72,
			"byteOffset":528656,
			"target":34963
		},
		{
			"buffer":0,
			"byteLength":9444,
			"byteOffset":528728,
			"target":34962
		},
		{
			"buffer":0,
			"byteLength":9444,
			"byteOffset":538172,
			"target":34962
		},
		{
			"buffer":0,
			"byteLength":6296,
			"byteOffset":547616,
			"target":34962
		},
		{
			"buffer":0,
			"byteLength":8892,
			"byteOffset":553912,
			"target":34963
		},
		{
			"buffer":0,
			"byteLength":4284,
			"byteOffset":562804,
			"target":34962
		},
		{
			"buffer":0,
			"byteLength":4284,
			"byteOffset":567088,
			"target":34962
		},
		{
			"buffer":0,
			"byteLength":2856,
			"byteOffset":571372,
			"target":34962
		},
		{
			"buffer":0,
			"byteLength":4080,
			"byteOffset":574228,
			"target":34963
		}
	],
	"buffers":[
		{
			"byteLength":578308,
			"uri":"tower.bin"
		}
	]
}
