{
	"asset":{
		"generator":"Khronos glTF Blender I/O v5.2.40",
		"version":"2.0"
	},
	"scene":0,
	"scenes":[
		{
			"name":"Scene",
			"nodes":[
				0
			]
		}
	],
	"nodes":[
		{
			"mesh":0,
			"name":"chair"
		}
	],
	"materials":[
		{
			"doubleSided":true,
			"name":"black",
			"pbrMetallicRoughness":{
				"baseColorFactor":[
					0.05098039284348488,
					0.05098039284348488,
					0.08627451211214066,
					1
				],
				"metallicFactor":0,
				"roughnessFactor":0.5
			}
		},
		{
			"doubleSided":true,
			"name":"black_soft",
			"pbrMetallicRoughness":{
				"baseColorFactor":[
					0.10196078568696976,
					0.10196078568696976,
					0.14901961386203766,
					1
				],
				"metallicFactor":0,
				"roughnessFactor":0.5
			}
		},
		{
			"doubleSided":true,
			"name":"chair_fabric",
			"pbrMetallicRoughness":{
				"baseColorFactor":[
					0.16862745583057404,
					0.24705882370471954,
					0.5607843399047852,
					1
				],
				"metallicFactor":0,
				"roughnessFactor":0.5
			}
		},
		{
			"doubleSided":true,
			"name":"chrome",
			"pbrMetallicRoughness":{
				"baseColorFactor":[
					0.5411764979362488,
					0.5411764979362488,
					0.6039215922355652,
					1
				],
				"metallicFactor":0,
				"roughnessFactor":0.5
			}
		}
	],
	"meshes":[
		{
			"name":"chair",
			"primitives":[
				{
					"attributes":{
						"POSITION":0,
						"NORMAL":1,
						"TEXCOORD_0":2
					},
					"indices":3,
					"material":0
				},
				{
					"attributes":{
						"POSITION":4,
						"NORMAL":5,
						"TEXCOORD_0":6
					},
					"indices":7,
					"material":1
				},
				{
					"attributes":{
						"POSITION":8,
						"NORMAL":9,
						"TEXCOORD_0":10
					},
					"indices":11,
					"material":1
				},
				{
					"attributes":{
						"POSITION":12,
						"NORMAL":13,
						"TEXCOORD_0":14
					},
					"indices":15,
					"material":2
				},
				{
					"attributes":{
						"POSITION":16,
						"NORMAL":17,
						"TEXCOORD_0":18
					},
					"indices":19,
					"material":3
				},
				{
					"attributes":{
						"POSITION":20,
						"NORMAL":21,
						"TEXCOORD_0":22
					},
					"indices":23,
					"material":0
				},
				{
					"attributes":{
						"POSITION":24,
						"NORMAL":25,
						"TEXCOORD_0":26
					},
					"indices":27,
					"material":1
				}
			]
		}
	],
	"accessors":[
		{
			"bufferView":0,
			"componentType":5126,
			"count":354,
			"max":[
				-0.0009791746269911528,
				0.24374167621135712,
				0.09791351109743118
			],
			"min":[
				-0.06942105293273926,
				0.06891190260648727,
				0.029471633955836296
			],
			"type":"VEC3"
		},
		{
			"bufferView":1,
			"componentType":5126,
			"count":354,
			"type":"VEC3"
		},
		{
			"bufferView":2,
			"componentType":5126,
			"count":354,
			"type":"VEC2"
		},
		{
			"bufferView":3,
			"componentType":5123,
			"count":1716,
			"type":"SCALAR"
		},
		{
			"bufferView":4,
			"componentType":5126,
			"count":6921,
			"max":[
				0.32270461320877075,
				0.6252231001853943,
				0.3784351944923401
			],
			"min":[
				-0.3346494734287262,
				0.022899078205227852,
				-0.31098881363868713
			],
			"type":"VEC3"
		},
		{
			"bufferView":5,
			"componentType":5126,
			"count":6921,
			"type":"VEC3"
		},
		{
			"bufferView":6,
			"componentType":5126,
			"count":6921,
			"type":"VEC2"
		},
		{
			"bufferView":7,
			"componentType":5123,
			"count":30750,
			"type":"SCALAR"
		},
		{
			"bufferView":8,
			"componentType":5126,
			"count":4380,
			"max":[
				0.3346428871154785,
				0.35616856813430786,
				0.38309720158576965
			],
			"min":[
				-0.33324021100997925,
				2.846970528480597e-05,
				-0.25394123792648315
			],
			"type":"VEC3"
		},
		{
			"bufferView":9,
			"componentType":5126,
			"count":4380,
			"type":"VEC3"
		},
		{
			"bufferView":10,
			"componentType":5126,
			"count":4380,
			"type":"VEC2"
		},
		{
			"bufferView":11,
			"componentType":5123,
			"count":21903,
			"type":"SCALAR"
		},
		{
			"bufferView":12,
			"componentType":5126,
			"count":1061,
			"max":[
				0.22390049695968628,
				0.9800000190734863,
				0.32573041319847107
			],
			"min":[
				-0.2943008244037628,
				0.3963334560394287,
				-0.35484275221824646
			],
			"type":"VEC3"
		},
		{
			"bufferView":13,
			"componentType":5126,
			"count":1061,
			"type":"VEC3"
		},
		{
			"bufferView":14,
			"componentType":5126,
			"count":1061,
			"type":"VEC2"
		},
		{
			"bufferView":15,
			"componentType":5123,
			"count":5928,
			"type":"SCALAR"
		},
		{
			"bufferView":16,
			"componentType":5126,
			"count":861,
			"max":[
				0.04094461724162102,
				0.40146398544311523,
				0.13424566388130188
			],
			"min":[
				-0.11058492213487625,
				0.22202719748020172,
				-0.04971052706241608
			],
			"type":"VEC3"
		},
		{
			"bufferView":17,
			"componentType":5126,
			"count":861,
			"type":"VEC3"
		},
		{
			"bufferView":18,
			"componentType":5126,
			"count":861,
			"type":"VEC2"
		},
		{
			"bufferView":19,
			"componentType":5123,
			"count":2478,
			"type":"SCALAR"
		},
		{
			"bufferView":20,
			"componentType":5126,
			"count":2489,
			"max":[
				0.24242785573005676,
				0.40304243564605713,
				0.14117762446403503
			],
			"min":[
				-0.11443223804235458,
				0.33974209427833557,
				-0.15927383303642273
			],
			"type":"VEC3"
		},
		{
			"bufferView":21,
			"componentType":5126,
			"count":2489,
			"type":"VEC3"
		},
		{
			"bufferView":22,
			"componentType":5126,
			"count":2489,
			"type":"VEC2"
		},
		{
			"bufferView":23,
			"componentType":5123,
			"count":9852,
			"type":"SCALAR"
		},
		{
			"bufferView":24,
			"componentType":5126,
			"count":2778,
			"max":[
				0.22367294132709503,
				0.9781967401504517,
				0.32660186290740967
			],
			"min":[
				-0.2940732538700104,
				0.35074031352996826,
				-0.38310477137565613
			],
			"type":"VEC3"
		},
		{
			"bufferView":25,
			"componentType":5126,
			"count":2778,
			"type":"VEC3"
		},
		{
			"bufferView":26,
			"componentType":5126,
			"count":2778,
			"type":"VEC2"
		},
		{
			"bufferView":27,
			"componentType":5123,
			"count":13767,
			"type":"SCALAR"
		}
	],
	"bufferViews":[
		{
			"buffer":0,
			"byteLength":4248,
			"byteOffset":0,
			"target":34962
		},
		{
			"buffer":0,
			"byteLength":4248,
			"byteOffset":4248,
			"target":34962
		},
		{
			"buffer":0,
			"byteLength":2832,
			"byteOffset":8496,
			"target":34962
		},
		{
			"buffer":0,
			"byteLength":3432,
			"byteOffset":11328,
			"target":34963
		},
		{
			"buffer":0,
			"byteLength":83052,
			"byteOffset":14760,
			"target":34962
		},
		{
			"buffer":0,
			"byteLength":83052,
			"byteOffset":97812,
			"target":34962
		},
		{
			"buffer":0,
			"byteLength":55368,
			"byteOffset":180864,
			"target":34962
		},
		{
			"buffer":0,
			"byteLength":61500,
			"byteOffset":236232,
			"target":34963
		},
		{
			"buffer":0,
			"byteLength":52560,
			"byteOffset":297732,
			"target":34962
		},
		{
			"buffer":0,
			"byteLength":52560,
			"byteOffset":350292,
			"target":34962
		},
		{
			"buffer":0,
			"byteLength":35040,
			"byteOffset":402852,
			"target":34962
		},
		{
			"buffer":0,
			"byteLength":43806,
			"byteOffset":437892,
			"target":34963
		},
		{
			"buffer":0,
			"byteLength":12732,
			"byteOffset":481700,
			"target":34962
		},
		{
			"buffer":0,
			"byteLength":12732,
			"byteOffset":494432,
			"target":34962
		},
		{
			"buffer":0,
			"byteLength":8488,
			"byteOffset":507164,
			"target":34962
		},
		{
			"buffer":0,
			"byteLength":11856,
			"byteOffset":515652,
			"target":34963
		},
		{
			"buffer":0,
			"byteLength":10332,
			"byteOffset":527508,
			"target":34962
		},
		{
			"buffer":0,
			"byteLength":10332,
			"byteOffset":537840,
			"target":34962
		},
		{
			"buffer":0,
			"byteLength":6888,
			"byteOffset":548172,
			"target":34962
		},
		{
			"buffer":0,
			"byteLength":4956,
			"byteOffset":555060,
			"target":34963
		},
		{
			"buffer":0,
			"byteLength":29868,
			"byteOffset":560016,
			"target":34962
		},
		{
			"buffer":0,
			"byteLength":29868,
			"byteOffset":589884,
			"target":34962
		},
		{
			"buffer":0,
			"byteLength":19912,
			"byteOffset":619752,
			"target":34962
		},
		{
			"buffer":0,
			"byteLength":19704,
			"byteOffset":639664,
			"target":34963
		},
		{
			"buffer":0,
			"byteLength":33336,
			"byteOffset":659368,
			"target":34962
		},
		{
			"buffer":0,
			"byteLength":33336,
			"byteOffset":692704,
			"target":34962
		},
		{
			"buffer":0,
			"byteLength":22224,
			"byteOffset":726040,
			"target":34962
		},
		{
			"buffer":0,
			"byteLength":27534,
			"byteOffset":748264,
			"target":34963
		}
	],
	"buffers":[
		{
			"byteLength":775800,
			"uri":"chair.bin"
		}
	]
}
